<svg width="57" height="43" viewBox="0 0 57 43" fill="none" xmlns="http://www.w3.org/2000/svg">
<path fill-rule="evenodd" clip-rule="evenodd" d="M56.9716 28.5548C56.8302 29.5124 56.7025 30.4724 56.545 31.4273C55.9182 35.2255 54.494 38.7036 52.4287 41.9198C51.7806 42.9289 50.7248 43.2715 49.6495 42.7749C48.1514 42.0832 46.6639 41.3655 45.1928 40.6166C44.0833 40.0518 43.6788 38.8085 44.1911 37.7326C44.7031 36.6574 45.9075 36.2098 47.0328 36.7136C47.9367 37.1183 48.8208 37.5691 49.8005 38.0413C50.2447 37.0664 50.7186 36.146 51.092 35.1853C52.4485 31.6944 52.9546 28.0689 52.5934 24.334C52.3637 21.9591 51.7693 19.6725 50.8601 17.4651C50.6493 16.9535 50.4957 16.3472 50.5495 15.8086C50.6504 14.7992 51.4546 14.1281 52.4588 14.0124C53.3409 13.9108 54.2043 14.4392 54.6122 15.368C55.5023 17.3948 56.1633 19.497 56.5328 21.6862C56.7057 22.7094 56.827 23.7415 56.9716 24.7696V28.5548Z" fill="#16317E"/>
<mask id="mask0_0_965" style="mask-type:alpha" maskUnits="userSpaceOnUse" x="0" y="0" width="41" height="43">
<path fill-rule="evenodd" clip-rule="evenodd" d="M0.971558 0H40.9716V43H0.971558V0Z" fill="white"/>
</mask>
<g mask="url(#mask0_0_965)">
<path fill-rule="evenodd" clip-rule="evenodd" d="M11.4856 16.4855C12.2647 16.8513 12.7882 17.4186 12.8602 18.2896C12.9952 19.9222 11.3772 21.0508 9.82226 20.3927C8.80777 19.9634 7.82378 19.4641 6.76671 18.9682C4.39129 25.5704 4.84184 31.9252 8.20247 38.1259C9.11513 37.6907 9.96868 37.2553 10.8457 36.8718C12.4056 36.1896 14.0229 37.2554 13.9356 38.8989C13.8954 39.6569 13.5232 40.2569 12.8406 40.5993C11.3316 41.3564 9.81581 42.1032 8.27568 42.7956C7.22626 43.2675 6.17645 42.9002 5.53272 41.9249C3.16388 38.3361 1.65975 34.4384 1.16741 30.1707C0.433281 23.8073 1.75351 17.8883 5.28111 12.5152C9.40542 6.23338 15.2147 2.2204 22.6585 0.62941C28.4453 -0.607426 34.0817 -0.00923395 39.5199 2.31651C40.521 2.74456 41.0204 3.49861 40.9678 4.49194C40.9235 5.33073 40.3082 6.09417 39.4581 6.34773C38.8458 6.53042 38.26 6.41528 37.6891 6.16833C35.9013 5.39511 34.0417 4.85919 32.114 4.55579C31.6234 4.47859 31.1276 4.43298 30.5663 4.36464C30.5663 5.46359 30.5768 6.51443 30.5632 7.565C30.5505 8.54021 29.8478 9.37993 28.9108 9.57585C27.9053 9.78604 26.9182 9.34225 26.5057 8.43948C26.3645 8.13054 26.3008 7.7658 26.2914 7.42421C26.2639 6.42638 26.2816 5.42737 26.2816 4.3378C18.6523 5.23648 12.8453 8.84744 8.65222 15.1493C9.6264 15.6089 10.5553 16.0486 11.4856 16.4855Z" fill="#16317E"/>
</g>
<path fill-rule="evenodd" clip-rule="evenodd" d="M38.784 18.2538C38.7611 18.2317 38.7383 18.2097 38.7154 18.1876C37.7096 18.8945 36.6963 19.5911 35.6993 20.3102C33.4274 21.9489 31.1596 23.5932 28.8989 25.2472C28.2594 25.7152 27.9688 26.3721 28.0914 27.1612C28.2269 28.0329 28.7449 28.6254 29.5993 28.8303C30.4429 29.0326 31.1956 28.793 31.7198 28.072C33.6963 25.3536 35.6605 22.6262 37.6263 19.9002C38.0187 19.356 38.3985 18.8028 38.784 18.2538ZM23.9716 26.429C24.0368 24.9717 24.6668 23.3325 26.1988 22.1921C29.2106 19.9502 32.2439 17.7353 35.3115 15.5703C38.6986 13.1799 42.1363 10.8611 45.5467 8.50359C46.1836 8.06328 46.8469 7.85258 47.607 8.11503C48.905 8.56326 49.3815 10.0508 48.5771 11.2511C47.5177 12.8314 46.4373 14.3983 45.3428 15.9544C42.0977 20.5676 38.8444 25.1751 35.5871 29.7799C34.6389 31.1204 33.5232 32.2495 31.878 32.7386C27.9122 33.9177 23.9619 30.9836 23.9716 26.429Z" fill="#16317E"/>
</svg>
