<svg width="48" height="48" viewBox="0 0 48 48" fill="none" xmlns="http://www.w3.org/2000/svg">
<path fill-rule="evenodd" clip-rule="evenodd" d="M47.9716 12.9969C47.7963 13.5606 47.6779 14.1549 47.4357 14.6827C46.477 16.7727 44.9042 17.909 42.7373 17.9697C40.9604 18.0196 39.1815 17.9943 37.4035 17.9881C36.2998 17.9841 35.5005 17.1478 35.5055 16.0327C35.5103 14.9323 36.3327 14.0881 37.4215 14.0808C38.5818 14.0731 39.7421 14.0777 40.9024 14.0769C41.0478 14.0767 41.1933 14.0769 41.3388 14.0769C41.3701 14.0353 41.4014 13.9939 41.4328 13.9524C40.7583 13.0077 40.1323 12.0165 39.4011 11.1261C36.3118 7.36333 32.4501 5.06832 27.8632 4.23339C26.9176 4.06128 25.9467 4.04369 24.9861 3.97841C24.4621 3.94271 23.9705 3.84355 23.5656 3.45176C22.6337 2.54986 22.8277 0.893689 23.9411 0.279742C24.1381 0.171207 24.3492 0.092509 24.5538 0H25.4579C25.6802 0.0320524 25.9019 0.0685348 26.1245 0.0955058C27.0358 0.205865 27.9592 0.246126 28.8567 0.432708C35.3233 1.77669 40.4064 5.40422 44.0967 11.3039C44.1571 11.4005 44.2298 11.4879 44.3581 11.6636C44.3581 11.3889 44.3581 11.2296 44.3581 11.0702C44.3585 9.52348 44.3481 7.97675 44.3634 6.43016C44.3713 5.64279 44.7425 5.06363 45.3882 4.72421C46.0569 4.37268 46.7256 4.44643 47.2855 4.97242C47.5667 5.23666 47.7462 5.62741 47.9716 5.96097V12.9969Z" fill="#16317E"/>
<mask id="mask0_0_946" style="mask-type:alpha" maskUnits="userSpaceOnUse" x="0" y="30" width="26" height="18">
<path fill-rule="evenodd" clip-rule="evenodd" d="M0.971558 30H25.9716V48H0.971558V30Z" fill="white"/>
</mask>
<g mask="url(#mask0_0_946)">
<path fill-rule="evenodd" clip-rule="evenodd" d="M23.4827 48C22.6618 47.9054 21.8386 47.8303 21.0205 47.7129C16.8852 47.1196 13.1863 45.3988 9.90149 42.6307C7.88856 40.9343 6.19326 38.9187 4.79506 36.6106C4.75545 36.5451 4.71052 36.4833 4.61874 36.3458C4.60388 36.5597 4.58661 36.6942 4.58637 36.8287C4.58431 38.3922 4.5918 39.9557 4.58214 41.5191C4.57586 42.5405 3.90364 43.3296 2.95073 43.4682C2.1122 43.5902 1.24783 42.9321 1.02391 41.9885C0.983455 41.818 0.97633 41.6347 0.975968 41.4574C0.972707 39.5845 0.968238 37.7115 0.975364 35.8386C0.987803 32.5703 3.28371 30.0558 6.30582 30.0159C8.03771 29.9931 9.76996 30.0001 11.502 30.0048C12.638 30.008 13.4478 30.8404 13.4364 31.9698C13.425 33.0875 12.5956 33.9103 11.4672 33.9151C10.3225 33.9198 9.17781 33.9176 8.03312 33.9183C7.88964 33.9184 7.74628 33.9183 7.6028 33.9183C7.57273 33.961 7.54266 34.0038 7.51259 34.0465C8.17769 34.9799 8.79556 35.9586 9.5161 36.839C12.6099 40.6195 16.4795 42.9272 21.0804 43.7645C22.0403 43.9391 23.0259 43.961 24.0013 44.021C24.7961 44.0697 25.4412 44.3594 25.7973 45.1752C26.2567 46.2271 25.7729 47.4506 24.7544 47.8448C24.6306 47.8927 24.5093 47.9481 24.3867 48H23.4827Z" fill="#16317E"/>
</g>
<path fill-rule="evenodd" clip-rule="evenodd" d="M46.9716 25.4975C46.9103 25.6099 46.8444 25.7199 46.7886 25.8349C46.3764 26.6855 45.4557 27.1507 44.5653 26.956C43.63 26.7514 42.9716 25.9433 42.9716 25.0001C42.9716 24.0569 43.6299 23.2489 44.5653 23.0441C45.4554 22.8492 46.3764 23.3147 46.7886 24.1653C46.8444 24.2803 46.9103 24.3903 46.9716 24.5026V25.4975Z" fill="#16317E"/>
<path fill-rule="evenodd" clip-rule="evenodd" d="M24.92 25.1633C25.2616 24.6807 25.593 24.1304 26.009 23.6509C26.3316 23.279 26.7781 23.014 27.1369 22.6687C27.7672 22.0624 28.3838 21.4413 28.9838 20.8059C29.2958 20.4756 29.3172 20.0633 29.2085 19.6415H20.7501C20.5754 20.2432 20.7999 20.7146 21.1933 21.0969C21.9513 21.8333 22.72 22.5618 23.5227 23.25C24.1804 23.814 24.7432 24.4198 24.92 25.1633ZM24.9772 26.597C24.7431 27.5997 24.1381 28.2086 23.4653 28.7998C22.604 29.5565 21.7945 30.3718 20.9827 31.1813C20.6584 31.5044 20.6427 31.9237 20.7488 32.3618H29.2126C29.3867 31.7883 29.1949 31.3232 28.8125 30.9477C28.0688 30.2176 27.3236 29.4843 26.5259 28.8134C25.8289 28.2272 25.2184 27.6099 24.9772 26.597ZM28.8863 25.9941C29.5662 26.6118 30.2434 27.1942 30.882 27.8149C31.7689 28.6771 32.6116 29.6176 32.8071 30.8608C32.9487 31.7613 32.9575 32.7269 32.7874 33.6196C32.5211 35.0165 31.215 35.9772 29.773 35.9855C26.5833 36.0039 23.3934 36.0057 20.2037 35.9857C18.5312 35.9753 17.2142 34.6953 17.0346 33.0707C16.8203 31.1323 17.3799 29.483 18.7881 28.119C19.5267 27.4037 20.2896 26.7128 21.0837 25.9715C20.8552 25.777 20.5888 25.5826 20.3616 25.3511C19.5373 24.5113 18.6594 23.7107 17.926 22.7988C16.8743 21.4914 16.8176 19.9286 17.1564 18.3776C17.4648 16.9655 18.7569 16.0169 20.2286 16.0106C23.3878 15.997 26.5472 15.9961 29.7064 16.0101C31.4274 16.0178 32.7378 17.2922 32.9284 18.9704C33.1672 21.0727 32.4056 22.7595 30.8872 24.1734C30.2342 24.7814 29.5677 25.3749 28.8863 25.9941Z" fill="#16317E"/>
<path fill-rule="evenodd" clip-rule="evenodd" d="M2.95509 23C4.07291 22.9955 4.96605 23.8752 4.97153 24.986C4.97702 26.1017 4.09513 26.9949 2.98293 27C1.86404 27.0052 0.975991 26.1282 0.971575 25.014C0.967025 23.8927 1.84182 23.0046 2.95509 23Z" fill="#16317E"/>
<path fill-rule="evenodd" clip-rule="evenodd" d="M2.95903 19C1.85774 18.995 0.956196 18.0838 0.971756 16.9912C0.987316 15.8959 1.90216 14.9931 2.98962 15C4.0804 15.007 4.98341 15.9276 4.97144 17.0207C4.9592 18.13 4.06963 19.0049 2.95903 19Z" fill="#16317E"/>
<path fill-rule="evenodd" clip-rule="evenodd" d="M45.0015 29.0001C46.0985 29.0116 46.9997 29.9383 46.9709 31.0252C46.9419 32.1204 46.0167 33.0181 44.936 32.9997C43.8464 32.9812 42.9455 32.0456 42.9721 30.9602C42.9994 29.8467 43.888 28.9885 45.0015 29.0001Z" fill="#16317E"/>
<path fill-rule="evenodd" clip-rule="evenodd" d="M13.9716 3.98871C13.9746 2.86578 14.8454 1.99867 15.969 2C17.0756 2.00134 17.9746 2.89944 17.9715 4.00033C17.9683 5.09281 17.0529 6.002 15.9581 6C14.8546 5.99813 13.9686 5.10096 13.9716 3.98871Z" fill="#16317E"/>
<path fill-rule="evenodd" clip-rule="evenodd" d="M2.97158 10.98C2.97667 9.88281 3.88731 8.98817 4.98694 9.00012C6.08442 9.01193 6.97914 9.92171 6.97151 11.0179C6.96388 12.1065 6.03075 13.0207 4.94893 12.9996C3.83632 12.978 2.96649 12.0895 2.97158 10.98Z" fill="#16317E"/>
<path fill-rule="evenodd" clip-rule="evenodd" d="M30.9595 47C29.8608 46.9926 28.9562 46.0738 28.9718 44.981C28.9874 43.8846 29.9021 42.9923 31.0027 43.0001C32.1063 43.0079 32.98 43.9066 32.9715 45.0252C32.9628 46.1456 32.0846 47.0074 30.9595 47Z" fill="#16317E"/>
<path fill-rule="evenodd" clip-rule="evenodd" d="M39.9716 40.9889C39.9738 42.0818 39.0738 42.9881 37.9744 42.9999C36.8855 43.0116 35.9734 42.1027 35.9716 41.0042C35.9697 39.8976 36.8593 39.0009 37.9597 39C39.0653 38.9992 39.9693 39.8928 39.9716 40.9889Z" fill="#16317E"/>
<path fill-rule="evenodd" clip-rule="evenodd" d="M43.9716 36.9957C43.9736 38.1001 43.0787 39.0013 41.9817 39C40.8774 38.9987 39.9741 38.1038 39.9716 37.0088C39.969 35.9163 40.8726 35.0072 41.9682 35C43.0628 34.9929 43.9695 35.8964 43.9716 36.9957Z" fill="#16317E"/>
<path fill-rule="evenodd" clip-rule="evenodd" d="M12.9716 7.01591C12.9694 8.12321 12.0808 9.00146 10.9644 9C9.86073 8.9984 8.96649 8.0993 8.97158 6.99598C8.9764 5.90554 9.89847 4.99169 10.9852 5.00006C12.0841 5.00856 12.9737 5.91125 12.9716 7.01591Z" fill="#16317E"/>
</svg>
