<svg width="51" height="48" viewBox="0 0 51 48" fill="none" xmlns="http://www.w3.org/2000/svg">
<mask id="mask0_0_872" style="mask-type:alpha" maskUnits="userSpaceOnUse" x="0" y="0" width="51" height="48">
<path fill-rule="evenodd" clip-rule="evenodd" d="M0 0H51V48H0V0Z" fill="white"/>
</mask>
<g mask="url(#mask0_0_872)">
<path fill-rule="evenodd" clip-rule="evenodd" d="M46.7932 34.435C46.4922 36.0762 45.5215 37.1867 44.0703 37.8608C43.0092 38.3536 42.5849 39.0681 42.5597 40.2158C42.5339 41.3955 42.3069 42.5707 42.1689 43.748C42.1267 44.1087 41.9335 44.2398 41.5632 44.2344C40.0851 44.2126 38.6066 44.2193 37.1282 44.2079C36.6058 44.204 36.408 44.0091 36.3993 43.4886C36.3836 42.5316 36.3804 41.5744 36.3729 40.6173C36.3631 39.3378 35.5664 38.5558 34.2741 38.5726C30.4213 38.6225 26.5686 38.7022 22.7158 38.7189C20.7733 38.7274 18.8306 38.6186 16.8878 38.5744C15.4284 38.5413 14.6616 39.2978 14.6656 40.7376C14.6681 41.6616 14.6705 42.5859 14.6642 43.5099C14.6606 44.046 14.4863 44.2285 13.9498 44.2314C12.4547 44.2393 10.9595 44.2265 9.46464 44.2401C9.09408 44.2434 8.90786 44.1045 8.86764 43.742C8.73137 42.515 8.53117 41.2916 8.4683 40.0611C8.41649 39.0455 8.04779 38.3618 7.08822 37.9321C5.24766 37.1078 4.3359 35.638 4.08402 33.6533C3.68575 30.5163 3.70453 27.3989 4.30473 24.2952C4.59564 22.7909 5.39831 21.5975 6.68848 20.7231C8.05552 19.7966 9.58332 19.3708 11.1985 19.1535C15.9438 18.5152 20.7069 18.1358 27.0938 18.1403C30.7041 18.1532 35.8885 18.5018 41.0215 19.3686C43.1579 19.7293 45.0198 20.6764 46.1437 22.6777C46.7699 23.7928 46.8907 25.0303 47.0304 26.2539C47.3428 28.9888 47.2918 31.7162 46.7932 34.435ZM9.46691 13.3504C9.66631 12.2138 9.79538 11.0591 10.0824 9.94455C10.7839 7.22101 12.422 5.26642 15.2192 4.56297C16.6549 4.20199 18.1729 4.13768 19.6599 4.00972C23.0577 3.71714 26.4632 3.68128 29.8657 3.90849C31.6537 4.02798 33.4483 4.16123 35.2164 4.437C37.9853 4.86891 39.8549 6.56375 40.669 9.14305C41.3276 11.2298 41.5749 13.4447 42.0221 15.6902C30.9782 13.9575 20.0531 13.945 9.06118 15.6884C9.20424 14.8634 9.33424 14.1067 9.46691 13.3504ZM50.4625 23.6394C50.2043 22.2696 49.6387 21.0372 48.8401 19.8518C50.1159 18.5955 49.7645 17.037 49.6148 15.5166C49.5777 15.1401 49.5054 14.7653 49.4231 14.3956C48.9689 12.353 47.5749 11.3541 45.59 11.054C45.1823 10.9923 45.0086 10.8654 44.9394 10.4356C44.5429 7.97276 43.6084 5.75246 41.856 3.91418C40.0744 2.04546 37.9127 0.954037 35.3348 0.632617C31.2883 0.128056 27.2264 -0.125084 23.1548 0.0610993C20.4048 0.186942 17.6302 0.321782 14.9266 0.792335C10.7735 1.5151 8.13117 4.17155 6.703 8.04064C6.35681 8.97857 6.19231 9.98266 5.93337 10.9985C5.82508 11.0143 5.68189 11.0427 5.53737 11.0548C3.61702 11.2157 1.83494 12.4392 1.5339 14.8491C1.44612 15.5523 1.36247 16.2564 1.29801 16.962C1.1997 18.0372 1.37566 19.0378 2.22255 19.8508C0.484152 22.1837 0.320715 24.9156 0.094142 27.6312C0.0683012 27.9412 0.0316711 28.2503 -3.05176e-05 28.56V30.739C0.0998696 31.7375 0.210159 32.735 0.297672 33.7344C0.561275 36.7435 1.84333 39.1541 4.45165 40.8066C4.58392 40.8904 4.66664 41.1159 4.69421 41.2878C4.8715 42.3941 4.98352 43.5123 5.19904 44.6106C5.6045 46.677 7.25085 47.9856 9.37633 47.991C11.0709 47.9953 12.7655 47.9966 14.46 47.9908C16.6927 47.9829 18.2581 46.5381 18.4354 44.3265C18.4852 43.7047 18.5229 43.082 18.5657 42.4661H32.4775C32.5464 43.2216 32.5855 43.9937 32.6921 44.7566C32.9532 46.6234 34.4839 47.9624 36.3907 47.9853C38.2012 48.007 40.0124 48.0016 41.8232 47.9886C43.8107 47.9745 45.4564 46.6365 45.8471 44.6673C46.0681 43.5535 46.1781 42.4182 46.3563 41.2956C46.3835 41.1241 46.4654 40.8995 46.5971 40.8154C49.1602 39.1781 50.4192 36.8075 50.752 33.8396C51.1355 30.4199 51.1002 27.0258 50.4625 23.6394Z" fill="#105796"/>
</g>
<path fill-rule="evenodd" clip-rule="evenodd" d="M39.9975 29.1849C39.3584 29.186 38.8126 28.6406 38.8137 28.0017C38.8146 27.3602 39.3589 26.8183 40.0006 26.82C40.644 26.8219 41.1894 27.3669 41.1852 28.004C41.1811 28.6456 40.6398 29.1839 39.9975 29.1849ZM39.9805 23C37.2742 22.989 35.0143 25.2505 35.0001 27.9836C34.9859 30.7314 37.2443 33.0004 39.9928 33C42.7327 32.9994 44.9844 30.7727 44.9999 28.0479C45.0157 25.2717 42.7682 23.0114 39.9805 23Z" fill="#105796"/>
<path fill-rule="evenodd" clip-rule="evenodd" d="M9.97287 29.1848C9.33004 29.1698 8.80146 28.618 8.81554 27.9766C8.82962 27.3324 9.3818 26.8014 10.0223 26.8163C10.6648 26.8312 11.1999 27.3901 11.1809 28.0264C11.1614 28.676 10.6153 29.1998 9.97287 29.1848ZM9.9785 23.0001C7.25983 22.9904 5.00376 25.254 5.00001 27.9957C4.99625 30.7379 7.23301 32.9921 9.96549 33C12.7416 33.0081 15.0176 30.7526 14.9999 28.0111C14.9819 25.2326 12.7548 23.0101 9.9785 23.0001Z" fill="#105796"/>
<path fill-rule="evenodd" clip-rule="evenodd" d="M32.0779 26.0091C27.3614 25.9971 22.6447 25.9925 17.9284 26.0238C17.5157 26.0266 17.0519 26.2289 16.7045 26.4821C16.0552 26.9551 15.8529 27.8549 16.1052 28.6463C16.3619 29.4512 17.038 29.9884 17.8706 29.9922C20.2453 30.0031 22.6201 29.996 24.9949 29.9967C27.3532 29.9974 29.7115 30.0052 32.0697 29.9941C33.1594 29.9889 33.979 29.1396 33.9996 28.037C34.0203 26.9257 33.184 26.0119 32.0779 26.0091Z" fill="#105796"/>
</svg>
