<svg width="53" height="50" viewBox="0 0 53 50" fill="none" xmlns="http://www.w3.org/2000/svg">
<g clip-path="url(#clip0_82_4)">
<path d="M53 15.8922C53.0325 12.0879 51.6912 8.40189 49.2266 5.52255C46.6025 2.47052 43.3266 0.664466 39.4768 0.153088C34.5905 -0.49628 30.2244 0.925565 26.4846 4.37939C23.0371 1.13255 18.9285 -0.313646 14.2647 0.075975C10.9915 0.365543 7.89223 1.68965 5.4083 3.85975C2.92436 6.02984 1.18239 8.93528 0.430435 12.1623C0.308411 12.6872 0.219913 13.2162 0.131412 13.7384C0.0938661 13.967 0.0549787 14.1957 0.0134101 14.423L0 17.1219L0.0362076 17.2382C0.0496168 17.2829 0.0643651 17.3262 0.0804562 17.3735C0.0804562 17.3816 0.087159 17.3911 0.0911818 17.4006C0.292405 19.4238 0.877389 21.3891 1.81427 23.1894C2.77705 25.0712 4.17161 26.5837 5.4066 27.8554C5.19286 28.5336 5.121 29.2491 5.19556 29.9567C5.27013 30.6643 5.4895 31.3486 5.83978 31.9663C6.19007 32.584 6.66364 33.1215 7.23052 33.545C7.7974 33.9684 8.44524 34.2685 9.13303 34.4262C9.4108 34.4883 9.69269 34.5299 9.97647 34.5507C9.97848 35.866 10.4773 37.1312 11.3714 38.0886C12.2655 39.0459 13.4877 39.6235 14.789 39.7037C14.7942 41.0176 15.2949 42.2803 16.1896 43.2352C17.0842 44.19 18.3056 44.7654 19.6056 44.8445C19.6119 46.125 20.0877 47.3578 20.9414 48.3053C21.7952 49.2528 22.9663 49.8479 24.2291 49.9759C24.3887 49.9907 24.551 49.9989 24.7119 49.9989C26.0593 49.9933 27.354 49.4699 28.3324 48.5351C29.558 47.3824 30.793 46.1892 31.9864 45.0366L32.0078 45.0163L33.2683 43.7988C34.8667 44.3169 36.4369 44.0693 37.8275 43.0655C39.1241 42.1307 39.8388 40.8279 39.9595 39.1869C41.2704 39.1948 42.5315 38.6816 43.4701 37.7583C44.4221 36.8465 44.9451 35.7222 45.0537 34.3288C47.1053 34.2787 48.6179 33.348 49.5538 31.5555C50.5032 29.7359 50.3812 27.8635 49.2065 26.1197C51.6263 23.2682 52.9699 19.6459 53 15.8922V15.8922ZM31.0424 17.7009C30.8297 17.6972 30.6185 17.7364 30.4211 17.8163C30.2238 17.8963 30.0443 18.0153 29.8932 18.1663C29.204 18.8319 29.2227 19.8506 29.9442 20.642C29.9831 20.6853 30.0233 20.7272 30.0662 20.7773L32.9733 23.8889C35.665 26.765 38.3567 29.6398 41.0484 32.5133C41.6518 33.1572 41.8529 33.7187 41.696 34.3924C41.6309 34.7135 41.4817 35.0112 41.264 35.2544C41.0462 35.4977 40.7678 35.6776 40.4578 35.7756C40.1477 35.8735 39.8173 35.8858 39.5009 35.8112C39.1846 35.7366 38.8938 35.5779 38.6588 35.3516C38.3571 35.0702 38.0621 34.7468 37.7698 34.4262L37.4118 34.0366L32.9331 29.2515L27.4219 23.3612L27.3709 23.3085C27.2475 23.1691 27.113 23.0401 26.9687 22.9229C26.649 22.6649 26.2454 22.5366 25.8369 22.5631C25.4284 22.5896 25.0444 22.7691 24.7602 23.0663C24.4764 23.3494 24.3071 23.7288 24.2851 24.1308C24.263 24.5328 24.3898 24.9287 24.6408 25.2417C24.8473 25.5123 25.0686 25.7396 25.2831 25.9655L25.4655 26.1562L29.7564 30.7464C31.8501 32.9841 33.9437 35.2221 36.0373 37.4606C36.6595 38.1262 36.8164 38.8987 36.4758 39.6347C36.3197 39.9642 36.0716 40.2406 35.7619 40.4298C35.4522 40.6189 35.0944 40.7126 34.7326 40.6994C34.66 40.6923 34.588 40.681 34.5167 40.6655C34.451 40.6534 34.3826 40.6412 34.3223 40.6317H34.3075C34.3075 40.6209 34.3075 40.6087 34.3075 40.5952C34.3259 39.902 34.203 39.2124 33.9462 38.5692C33.6895 37.9259 33.3045 37.3428 32.8151 36.8559C31.9169 35.9611 30.7235 35.4313 29.4628 35.3678C29.0779 32.2048 27.4863 30.4894 24.7253 30.2621C24.7178 28.9451 24.2153 27.68 23.3194 26.7221C22.4235 25.7643 21.2007 25.1849 19.898 25.101C19.8851 24.6993 19.8343 24.2998 19.7464 23.9078C19.5369 23.0334 19.1051 22.2291 18.4936 21.5743C17.8822 20.9195 17.1122 20.4367 16.2595 20.1736C15.4068 19.9105 14.5008 19.876 13.6309 20.0737C12.761 20.2714 11.9572 20.6943 11.2986 21.3008C10.3318 22.1829 9.37842 23.0988 8.45721 23.9835L8.42234 24.016C8.05761 24.3678 7.69154 24.7186 7.32412 25.0685C4.004 21.727 2.7261 17.8781 3.52663 13.6234C4.48673 8.51776 7.61779 5.11805 12.5792 3.79091C16.7682 2.6721 20.6247 3.65562 24.0562 6.7063L23.7732 6.97687L21.7618 8.89521L20.1796 10.3996C19.3929 11.1482 18.6062 11.8976 17.8195 12.648C16.775 13.6451 16.2399 14.9113 16.311 16.2128C16.3821 17.5142 17.0565 18.7237 18.2097 19.6057C20.5926 21.428 23.8309 21.2183 26.0836 19.0957C27.3843 17.8714 28.6904 16.624 29.9522 15.4187L31.6364 13.8115L31.8536 13.6031L32.2143 13.2595C32.2803 13.1929 32.3526 13.1331 32.4302 13.0809C32.4995 13.1364 32.564 13.1974 32.6233 13.2636C34.1278 14.8671 35.6306 16.4721 37.1315 18.0784L40.3886 21.5606C42.3008 23.6034 44.2773 25.7166 46.2243 27.8067C46.4678 28.0545 46.6423 28.3627 46.7301 28.7002C46.8179 29.0377 46.816 29.3926 46.7245 29.7291C46.6354 30.0329 46.4672 30.307 46.2375 30.523C46.0079 30.7391 45.725 30.8891 45.4184 30.9575C44.6957 31.1388 44.0936 30.9372 43.525 30.3257C42.0192 28.7023 40.4852 27.0708 39.0021 25.4879L35.9448 22.2208C34.7389 20.9329 33.532 19.645 32.3243 18.357C32.1643 18.1676 31.9685 18.012 31.7485 17.8994C31.5285 17.7868 31.2885 17.7193 31.0424 17.7009V17.7009ZM23.505 43.4321C25.0712 41.9061 26.5235 40.5249 27.9448 39.2099C28.2524 38.8953 28.6695 38.7143 29.1074 38.7053C29.4022 38.7123 29.6921 38.7829 29.9576 38.9123C30.628 39.2194 30.9686 39.7537 31.0169 40.5465C30.9874 41.135 30.8225 41.5435 30.4805 41.8723L29.8101 42.523C28.5711 43.7162 27.2905 44.9581 26.0086 46.1365C25.2255 46.8616 24.1044 46.8332 23.4018 46.0702C22.6737 45.2855 22.7179 44.2005 23.505 43.4321ZM9.02308 28.0922C10.5303 26.604 12.0589 25.1524 13.5648 23.7698C13.8637 23.4667 14.2675 23.2926 14.6912 23.2841C14.9837 23.2911 15.2711 23.3627 15.5333 23.4938C16.1809 23.7982 16.5644 24.3231 16.5859 24.9184C16.5859 25.6597 16.4277 26.1156 16.0361 26.4917L15.3576 27.1452C14.1199 28.3357 12.8393 29.5681 11.5574 30.7532C11.2066 31.0864 10.7396 31.2664 10.2579 31.2542C9.77626 31.242 9.31883 31.0385 8.98501 30.688C8.65119 30.3375 8.46793 29.8682 8.47506 29.3822C8.48219 28.8961 8.67912 28.4326 9.02308 28.0922ZM13.9134 33.1383C15.6687 31.4323 17.0445 30.1309 18.3505 28.9174C18.6591 28.6012 19.0775 28.4188 19.5171 28.4087C19.8085 28.4156 20.0949 28.4862 20.3566 28.6157C20.9948 28.9147 21.3864 29.4382 21.4038 30.0051C21.4038 30.783 21.2483 31.2348 20.8514 31.6163L20.2962 32.1575C19.0277 33.375 17.7163 34.6372 16.4075 35.8521C15.6164 36.5867 14.4793 36.5556 13.7632 35.7791C13.0753 35.0215 13.137 33.8891 13.9107 33.1396L13.9134 33.1383ZM18.2594 40.4072C18.0997 40.085 18.0447 39.7204 18.102 39.3649C18.1592 39.0094 18.326 38.6811 18.5785 38.4266C20.3083 36.726 21.7592 35.3421 23.1457 34.069C23.4631 33.778 23.8767 33.6169 24.3056 33.6172C24.5571 33.6177 24.8058 33.6702 25.0364 33.7714C25.2671 33.8726 25.4747 34.0204 25.6465 34.2057C26.3304 34.9254 26.3411 36.055 25.6706 36.722C24.0736 38.3157 22.5664 39.7443 21.0659 41.089C20.8795 41.2554 20.555 41.3704 20.2909 41.4637L20.1219 41.5246C19.1269 41.4475 18.5839 41.1201 18.2567 40.4085L18.2594 40.4072ZM46.16 22.8025C45.2589 21.8406 44.3671 20.8896 43.4781 19.9372L40.2465 16.4833L35.0759 10.9556C34.325 10.1534 33.4467 9.71774 32.5362 9.6988H32.4718C31.5881 9.6988 30.7112 10.0911 29.9321 10.8338L28.26 12.4302C26.8158 13.8047 25.3233 15.232 23.8483 16.6308C22.7085 17.7131 21.1464 17.7496 20.0468 16.7323C19.9297 16.6345 19.8336 16.5137 19.7644 16.3771C19.6952 16.2406 19.6544 16.0912 19.6445 15.9381C19.6503 15.7979 19.6846 15.6603 19.7453 15.5339C19.806 15.4076 19.8917 15.2951 19.9972 15.2035C20.816 14.4189 21.6327 13.632 22.4471 12.8428C24.5925 10.7635 26.8212 8.61382 29.0766 6.58725C32.7601 3.27817 36.9491 2.44211 41.5284 4.10612C46.1077 5.77012 48.7935 9.1049 49.5525 14.036C50.0889 17.5372 49.2119 20.7611 46.935 23.6237L46.16 22.8025Z" fill="#105796"/>
</g>
<defs>
<clipPath id="clip0_82_4">
<rect width="53" height="50" fill="white"/>
</clipPath>
</defs>
</svg>
