<svg width="61" height="58" viewBox="0 0 61 58" fill="none" xmlns="http://www.w3.org/2000/svg">
<g clip-path="url(#clip0_82_4)">
<path d="M61 18.4349C61.0374 14.022 59.4936 9.74615 56.6571 6.40612C53.6368 2.86577 49.8664 0.770741 45.4355 0.177544C39.8117 -0.575724 34.7866 1.07362 30.4822 5.08006C26.5144 1.31372 21.7856 -0.363868 16.4179 0.0880919C12.6506 0.423991 9.08351 1.95996 6.22465 4.47727C3.36578 6.99457 1.36087 10.3649 0.495407 14.1083C0.354964 14.7172 0.253107 15.3308 0.151248 15.9365C0.108035 16.2017 0.0632773 16.4669 0.0154342 16.7306L0 19.8614L0.0416728 19.9963C0.0571061 20.0481 0.0740806 20.0983 0.0926006 20.1532C0.0926006 20.1627 0.100315 20.1736 0.104945 20.1846C0.336541 22.5316 1.00983 24.8113 2.08812 26.8997C3.19623 29.0826 4.80129 30.8371 6.2227 32.3122C5.97669 33.0989 5.89398 33.9289 5.9798 34.7498C6.06562 35.5706 6.3181 36.3644 6.72126 37.0809C7.12442 37.7973 7.66947 38.4209 8.32192 38.9121C8.97436 39.4033 9.71999 39.7514 10.5116 39.9344C10.8313 40.0064 11.1557 40.0547 11.4824 40.0787C11.4847 41.6046 12.0588 43.0722 13.0879 44.1827C14.1169 45.2932 15.5236 45.9632 17.0214 46.0562C17.0273 47.5804 17.6036 49.0451 18.6333 50.1527C19.663 51.2604 21.0688 51.9279 22.565 52.0196C22.5722 53.5049 23.1198 54.935 24.1024 56.0341C25.085 57.1332 26.4329 57.8235 27.8864 57.972C28.07 57.9892 28.2568 57.9986 28.442 57.9986C29.9928 57.9922 31.4829 57.385 32.609 56.3006C34.0196 54.9636 35.441 53.5795 36.8145 52.2424L36.8392 52.2189L38.2899 50.8065C40.1296 51.4076 41.9368 51.1204 43.5373 49.9559C45.0297 48.8716 45.8522 47.3603 45.9911 45.4567C47.4998 45.4659 48.9514 44.8706 50.0316 43.7996C51.1273 42.7418 51.7292 41.4378 51.8542 39.8214C54.2155 39.7633 55.9564 38.6836 57.0337 36.6043C58.1263 34.4936 57.9859 32.3216 56.6339 30.2988C59.419 26.991 60.9653 22.7892 61 18.4349V18.4349ZM35.728 20.533C35.4833 20.5287 35.2402 20.5742 35.013 20.6669C34.7859 20.7596 34.5793 20.8977 34.4054 21.0729C33.6121 21.845 33.6337 23.0266 34.464 23.9447C34.5088 23.9949 34.5551 24.0436 34.6045 24.1016L37.9504 27.711C41.0484 31.0474 44.1464 34.3821 47.2443 37.7154C47.9388 38.4623 48.1703 39.1136 47.9897 39.8951C47.9148 40.2676 47.7431 40.6129 47.4925 40.8951C47.2419 41.1773 46.9215 41.386 46.5646 41.4996C46.2077 41.6132 45.8275 41.6275 45.4634 41.541C45.0992 41.4545 44.7645 41.2704 44.4941 41.0078C44.1469 40.6813 43.8073 40.3063 43.4709 39.9344L43.0588 39.4824L37.9041 33.9318L31.561 27.099L31.5024 27.0378C31.3604 26.8761 31.2055 26.7265 31.0394 26.5905C30.6715 26.2912 30.207 26.1424 29.7368 26.1731C29.2666 26.2039 28.8246 26.4121 28.4975 26.7569C28.171 27.0853 27.9761 27.5254 27.9507 27.9917C27.9253 28.458 28.0713 28.9173 28.3602 29.2803C28.5979 29.5942 28.8525 29.8578 29.0994 30.1199L29.3093 30.3412L34.248 35.6658C36.6576 38.2615 39.0673 40.8576 41.4769 43.4543C42.193 44.2264 42.3736 45.1225 41.9816 45.9762C41.8019 46.3585 41.5163 46.6791 41.1599 46.8985C40.8034 47.1179 40.3917 47.2266 39.9753 47.2112C39.8918 47.203 39.8088 47.1899 39.7268 47.172C39.6512 47.1579 39.5724 47.1437 39.503 47.1328H39.486C39.486 47.1202 39.486 47.1061 39.486 47.0904C39.5072 46.2863 39.3657 45.4864 39.0702 44.7402C38.7747 43.9941 38.3316 43.3176 37.7683 42.7528C36.7345 41.7148 35.361 41.1003 33.91 41.0266C33.467 37.3576 31.6351 35.3677 28.4574 35.104C28.4487 33.5763 27.8705 32.1088 26.8393 30.9976C25.8081 29.8865 24.4008 29.2144 22.9014 29.1171C22.8866 28.6512 22.8282 28.1877 22.727 27.733C22.4858 26.7187 21.9889 25.7857 21.2851 25.0262C20.5814 24.2666 19.6951 23.7066 18.7137 23.4013C17.7323 23.0961 16.6896 23.0562 15.6884 23.2855C14.6872 23.5148 13.762 24.0054 13.0041 24.7089C11.8913 25.7321 10.794 26.7946 9.73376 27.8209L9.69364 27.8585C9.27385 28.2666 8.85252 28.6735 8.42965 29.0795C4.60837 25.2033 3.13759 20.7386 4.05895 15.8031C5.16397 9.88057 8.76764 5.9369 14.4779 4.39741C19.2993 3.09959 23.7379 4.24048 27.6873 7.77926L27.3616 8.09313L25.0467 10.3184L23.2255 12.0635C22.3201 12.9318 21.4147 13.8012 20.5093 14.6717C19.307 15.8282 18.6912 17.2971 18.773 18.8068C18.8548 20.3165 19.6311 21.7194 20.9584 22.7426C23.7009 24.8565 27.428 24.6132 30.0208 22.151C31.5178 20.7307 33.021 19.2838 34.4733 17.8856L36.4117 16.0213L36.6617 15.7796L37.0769 15.381C37.1528 15.3037 37.236 15.2344 37.3254 15.1738C37.405 15.2381 37.4794 15.309 37.5476 15.3857C39.2792 17.2458 41.0088 19.1076 42.7363 20.9709L46.485 25.0102C48.6858 27.3799 50.9607 29.8312 53.2016 32.2557C53.4818 32.5432 53.6826 32.9007 53.7837 33.2922C53.8848 33.6837 53.8825 34.0954 53.7772 34.4857C53.6747 34.8381 53.4811 35.1561 53.2168 35.4067C52.9524 35.6573 52.6269 35.8313 52.274 35.9107C51.4422 36.1209 50.7492 35.8871 50.0948 35.1778C48.3617 33.2946 46.5961 31.402 44.8892 29.5659L41.3704 25.7761C39.9825 24.2821 38.5935 22.7881 37.2034 21.2941C37.0192 21.0743 36.794 20.8939 36.5407 20.7632C36.2875 20.6326 36.0112 20.5543 35.728 20.533V20.533ZM27.053 50.3812C28.8556 48.6111 30.527 47.0088 32.1629 45.4834C32.517 45.1186 32.997 44.9086 33.501 44.8981C33.8403 44.9062 34.1739 44.9881 34.4795 45.1382C35.2511 45.4944 35.6431 46.1143 35.6987 47.0339C35.6647 47.7165 35.4749 48.1905 35.0814 48.5718L34.3097 49.3267C32.8837 50.7108 31.4098 52.1514 29.9344 53.5183C29.0331 54.3594 27.7428 54.3265 26.9341 53.4414C26.0961 52.5312 26.147 51.2726 27.053 50.3812ZM10.385 32.5869C12.1197 30.8606 13.8791 29.1768 15.6123 27.5729C15.9563 27.2214 16.4211 27.0194 16.9087 27.0095C17.2454 27.0176 17.5762 27.1007 17.8779 27.2528C18.6233 27.6059 19.0647 28.2148 19.0894 28.9053C19.0894 29.7652 18.9073 30.2941 18.4566 30.7304L17.6757 31.4883C16.2512 32.8693 14.7774 34.299 13.3019 35.6737C12.8981 36.0602 12.3606 36.269 11.8063 36.2548C11.2519 36.2406 10.7255 36.0046 10.3412 35.598C9.95702 35.1914 9.74611 34.6471 9.75431 34.0833C9.76252 33.5195 9.98918 32.9817 10.385 32.5869ZM16.0136 38.4404C18.0338 36.4615 19.6172 34.9518 21.1204 33.5441C21.4755 33.1774 21.9571 32.9658 22.4631 32.9541C22.7985 32.962 23.1281 33.0439 23.4292 33.1942C24.1639 33.541 24.6145 34.1483 24.6346 34.8059C24.6346 35.7082 24.4556 36.2324 23.9987 36.6749L23.3598 37.3026C21.8998 38.715 20.3904 40.1792 18.8842 41.5884C17.9736 42.4405 16.6648 42.4044 15.8407 41.5037C15.049 40.6248 15.12 39.3113 16.0105 38.4419L16.0136 38.4404ZM21.0155 46.8723C20.8318 46.4986 20.7684 46.0756 20.8343 45.6632C20.9002 45.2509 21.0921 44.8701 21.3828 44.5748C23.3737 42.6022 25.0436 40.9968 26.6394 39.5201C27.0047 39.1825 27.4807 38.9956 27.9743 38.9959C28.2638 38.9965 28.5501 39.0573 28.8155 39.1747C29.081 39.2922 29.3199 39.4636 29.5177 39.6786C30.3048 40.5134 30.3171 41.8238 29.5455 42.5975C27.7074 44.4461 25.9727 46.1033 24.2457 47.6632C24.0311 47.8562 23.6577 47.9896 23.3536 48.0979L23.1592 48.1685C22.014 48.0791 21.389 47.6993 21.0124 46.8738L21.0155 46.8723ZM53.1275 26.4509C52.0904 25.3351 51.0641 24.2319 50.0408 23.1271L46.3214 19.1206L40.3703 12.7085C39.5061 11.7779 38.4952 11.2725 37.4473 11.2506H37.3732C36.3562 11.2506 35.3468 11.7057 34.4501 12.5672L32.5256 14.419C30.8635 16.0134 29.1457 17.669 27.4481 19.2917C26.1362 20.5471 24.3383 20.5895 23.0727 19.4094C22.9379 19.296 22.8273 19.1558 22.7477 18.9974C22.6681 18.839 22.6211 18.6657 22.6097 18.4882C22.6164 18.3255 22.6559 18.1659 22.7257 18.0193C22.7955 17.8727 22.8942 17.7423 23.0156 17.6361C23.9581 16.7259 24.898 15.8131 25.8353 14.8976C28.3046 12.4856 30.8696 9.99199 33.4655 7.64117C37.705 3.80264 42.5264 2.83281 47.7968 4.76306C53.0673 6.6933 56.1586 10.5616 57.0321 16.2818C57.6494 20.3431 56.6401 24.0828 54.0195 27.4034L53.1275 26.4509Z" fill="#105796"/>
</g>
<defs>
<clipPath id="clip0_82_4">
<rect width="61" height="58" fill="white"/>
</clipPath>
</defs>
</svg>
