<svg width="59" height="55" viewBox="0 0 59 55" fill="none" xmlns="http://www.w3.org/2000/svg">
<mask id="mask0_0_886" style="mask-type:alpha" maskUnits="userSpaceOnUse" x="0" y="0" width="59" height="55">
<path fill-rule="evenodd" clip-rule="evenodd" d="M0 0H59V55H0V0Z" fill="white"/>
</mask>
<g mask="url(#mask0_0_886)">
<path fill-rule="evenodd" clip-rule="evenodd" d="M0 16.8102C0.230565 15.6095 0.354005 14.3758 0.70955 13.2132C2.75185 6.53489 7.0267 2.04027 13.9223 0.453005C19.5606 -0.844795 24.5858 0.695094 28.9546 4.44161C29.1266 4.58911 29.2923 4.74415 29.4596 4.89441C30.2107 4.29704 30.8981 3.68413 31.6493 3.16288C39.5806 -2.33962 50.1712 -0.379384 55.6807 7.59737C60.7381 14.9195 59.948 24.6623 53.777 31.0739C49.0525 35.9826 44.3255 40.8885 39.6058 45.8016C38.8964 46.5402 38.0642 46.9511 37.0353 46.807C35.8732 46.6441 35.0498 45.9972 34.6724 44.8789C34.3044 43.7889 34.5323 42.79 35.331 41.9533C36.9211 40.2876 38.527 38.6369 40.1217 36.9754C43.4703 33.4865 46.9143 30.0829 50.1387 26.4828C54.6757 21.4172 54.1243 13.2884 49.1053 8.78459C43.9441 4.15292 36.2426 4.97208 32.1694 10.599C31.6381 11.3328 31.0767 12.0025 30.1445 12.19C28.8168 12.457 27.7746 11.9936 27.0088 10.8859C25.8973 9.27861 24.4878 8.00172 22.7542 7.09443C17.2428 4.21014 10.65 6.24051 7.47352 11.7948C4.59761 16.8236 5.39196 23.0355 9.42162 27.2002C16.7614 34.7855 24.0939 42.3778 31.424 49.9723C33.0367 51.6432 32.4877 54.1873 30.3738 54.8499C29.148 55.2341 28.1234 54.8617 27.2472 53.95C24.4147 51.0026 21.5709 48.0662 18.7321 45.125C14.254 40.4855 9.77871 35.8432 5.29761 31.2065C2.26933 28.0729 0.519311 24.3502 0.0929649 20.0103C0.0821908 19.9011 0.0318605 19.7956 0 19.6884C0 18.7291 0 17.7697 0 16.8102Z" fill="#105796"/>
</g>
</svg>
