<?xml version="1.0" encoding="UTF-8"?><svg id="Ebene_1" xmlns="http://www.w3.org/2000/svg" xmlns:xlink="http://www.w3.org/1999/xlink" viewBox="0 0 726.17 228.21"><defs><style>.cls-1{fill:none;}.cls-2{clip-path:url(#clippath);}.cls-3{fill:#fff;}.cls-4{clip-path:url(#clippath-1);}.cls-5{clip-path:url(#clippath-4);}.cls-6{clip-path:url(#clippath-3);}.cls-7{clip-path:url(#clippath-2);}.cls-8{clip-path:url(#clippath-7);}.cls-9{clip-path:url(#clippath-8);}.cls-10{clip-path:url(#clippath-6);}.cls-11{clip-path:url(#clippath-5);}.cls-12{clip-path:url(#clippath-9);}.cls-13{clip-path:url(#clippath-20);}.cls-14{clip-path:url(#clippath-21);}.cls-15{clip-path:url(#clippath-22);}.cls-16{clip-path:url(#clippath-14);}.cls-17{clip-path:url(#clippath-13);}.cls-18{clip-path:url(#clippath-12);}.cls-19{clip-path:url(#clippath-10);}.cls-20{clip-path:url(#clippath-15);}.cls-21{clip-path:url(#clippath-17);}.cls-22{clip-path:url(#clippath-16);}.cls-23{clip-path:url(#clippath-19);}.cls-24{clip-path:url(#clippath-11);}.cls-25{clip-path:url(#clippath-18);}.cls-26{opacity:.33;}.cls-27{opacity:.66;}</style><clipPath id="clippath"><rect class="cls-1" width="726.17" height="227.75"/></clipPath><clipPath id="clippath-1"><rect class="cls-1" width="726.17" height="227.75"/></clipPath><clipPath id="clippath-2"><rect class="cls-1" width="726.17" height="227.75"/></clipPath><clipPath id="clippath-3"><rect class="cls-1" width="726.17" height="227.75"/></clipPath><clipPath id="clippath-4"><rect class="cls-1" width="726.17" height="227.75"/></clipPath><clipPath id="clippath-5"><rect class="cls-1" width="227.75" height="227.75"/></clipPath><clipPath id="clippath-6"><rect class="cls-1" width="227.75" height="227.75"/></clipPath><clipPath id="clippath-7"><rect class="cls-1" width="227.75" height="227.75"/></clipPath><clipPath id="clippath-8"><rect class="cls-1" width="227.75" height="227.75"/></clipPath><clipPath id="clippath-9"><rect class="cls-1" width="227.75" height="227.75"/></clipPath><clipPath id="clippath-10"><rect class="cls-1" width="227.75" height="227.75"/></clipPath><clipPath id="clippath-11"><rect class="cls-1" width="227.75" height="227.75"/></clipPath><clipPath id="clippath-12"><rect class="cls-1" width="227.75" height="227.75"/></clipPath><clipPath id="clippath-13"><rect class="cls-1" width="726.17" height="227.75"/></clipPath><clipPath id="clippath-14"><rect class="cls-1" x="38.24" y="38.24" width="150.84" height="150.84"/></clipPath><clipPath id="clippath-15"><rect class="cls-1" x="38.24" y="38.24" width="150.84" height="150.84"/></clipPath><clipPath id="clippath-16"><rect class="cls-1" x="38.24" y="38.24" width="150.84" height="150.84"/></clipPath><clipPath id="clippath-17"><rect class="cls-1" x="38.24" y="38.24" width="150.84" height="150.84"/></clipPath><clipPath id="clippath-18"><rect class="cls-1" x="38.24" y="38.24" width="150.84" height="150.84"/></clipPath><clipPath id="clippath-19"><rect class="cls-1" x="38.24" y="38.24" width="150.84" height="150.84"/></clipPath><clipPath id="clippath-20"><rect class="cls-1" x="38.24" y="38.24" width="150.84" height="150.84"/></clipPath><clipPath id="clippath-21"><rect class="cls-1" x="38.24" y="38.24" width="150.84" height="150.84"/></clipPath><clipPath id="clippath-22"><rect class="cls-1" width="726.17" height="227.75"/></clipPath></defs><g><rect class="cls-3" x="284.69" y="56.94" width="20.82" height="113.87"/><g><g class="cls-2"><path class="cls-3" d="M415.56,170.81c-36.54-7.22-42.07-76.48-62.04-90.93v90.93h-19.97V56.94h18.27c35.69,6.8,39.94,77.76,62.04,90.93V56.94h19.97v113.87s-18.27,0-18.27,0Z"/></g><g class="cls-4"><path class="cls-3" d="M450.4,170.81c7.65-43.77,25.92-85.83,48.44-113.87h13.6c22.52,28.04,40.79,70.11,48.44,113.87h-20.82c-2.12-11.05-4.25-20.82-6.8-29.74h-55.66c-2.12,8.92-4.67,19.12-6.37,29.74h-20.82Zm32.72-46.74h45.04c-6.8-17.85-14.87-31.87-22.94-45.04-8.5,13.17-16.15,26.77-22.1,45.04"/></g><g class="cls-7"><rect class="cls-3" x="577.87" y="56.94" width="20.82" height="113.87"/></g><g class="cls-6"><path class="cls-3" d="M615.26,170.81c7.65-43.77,26.34-85.83,48.44-113.87h13.6c22.52,28.04,40.79,70.11,48.44,113.87h-20.4c-2.12-11.05-4.25-20.82-6.8-29.74h-55.66c-2.12,8.92-4.67,19.12-6.37,29.74h-21.25Zm32.72-46.74h44.62c-6.8-17.85-14.87-31.87-22.94-45.04-8.07,13.17-15.72,26.77-21.67,45.04"/></g><g class="cls-5"><g class="cls-26"><g><g class="cls-11"><path class="cls-3" d="M144.89,38.24v-14.02c0-6.8-4.25-12.75-10.2-15.3L113.87,.42l-20.82,8.5c-6.37,2.55-10.2,8.5-10.2,15.3v14.02l31.44,31.44,30.59-31.44Z"/></g><g class="cls-10"><path class="cls-3" d="M82.43,189.51v14.45c0,6.8,4.25,12.75,10.2,15.3l20.82,8.5,20.82-8.5c6.37-2.55,10.2-8.5,10.2-15.3v-14.45l-31.44-31.44-30.59,31.44Z"/></g><g class="cls-8"><path class="cls-3" d="M38.24,82.43h-14.02c-6.8,0-12.75,4.25-15.3,10.2L.42,113.45l8.5,20.82c2.55,6.37,8.5,10.2,15.3,10.2h14.02l31.44-31.44-31.44-30.59Z"/></g><g class="cls-9"><path class="cls-3" d="M218.83,93.05c-2.55-6.37-8.5-10.2-15.3-10.2h-14.45l-31.44,31.44,31.44,31.44h14.45c6.8,0,12.75-4.25,15.3-10.2l8.5-20.82-8.5-21.67Z"/></g><g class="cls-12"><path class="cls-3" d="M38.24,144.89l-10.2,10.2c-4.67,4.67-6.37,11.9-3.82,18.27l8.5,20.82,20.82,8.5c6.37,2.55,13.6,1.27,18.27-3.82l10.2-10.2v-43.77H38.24Z"/></g><g class="cls-19"><path class="cls-3" d="M189.51,82.43l10.2-10.2c4.67-4.67,6.37-11.9,3.82-18.27l-8.5-20.82-20.82-8.5c-6.37-2.55-13.6-1.27-18.27,3.82l-11.05,9.77v44.19h44.62Z"/></g><g class="cls-24"><path class="cls-3" d="M144.89,189.51l10.2,10.2c4.67,4.67,11.9,6.37,18.27,3.82l20.82-8.5,8.5-20.82c2.55-6.37,1.27-13.6-3.82-18.27l-10.2-10.2h-43.77v43.77Z"/></g><g class="cls-18"><path class="cls-3" d="M82.43,38.24l-10.2-10.2c-4.67-4.67-11.9-6.37-18.27-3.82l-20.82,8.5-8.5,20.82c-2.55,6.37-1.27,13.6,3.82,18.27l9.77,10.62h44.19V38.24Z"/></g></g></g></g><g class="cls-17"><g class="cls-27"><g><g class="cls-16"><path class="cls-3" d="M135.97,82.43h9.35V38.24l-31.44,31.44,6.37,6.37c4.25,4.25,9.77,6.37,15.72,6.37"/></g><g class="cls-20"><path class="cls-3" d="M91.78,144.89h-9.35v44.19l31.44-31.44-6.37-6.37c-4.25-3.82-9.77-6.37-15.72-6.37"/></g><g class="cls-22"><path class="cls-3" d="M151.27,107.08l6.37,6.37,31.44-31.44h-44.19v9.35c0,6.37,2.55,11.9,6.37,15.72"/></g><g class="cls-21"><path class="cls-3" d="M76.06,120.25l-6.37-6.37-31.44,31.02h44.19v-8.92c0-5.95-2.12-11.47-6.37-15.72"/></g><g class="cls-25"><path class="cls-3" d="M107.08,76.06l6.37-6.37-31.02-31.44v44.19h9.35c5.95,0,11.47-2.12,15.3-6.37"/></g><g class="cls-23"><path class="cls-3" d="M120.25,151.27l-6.37,6.37,31.44,31.44v-44.19h-9.35c-5.95,0-11.47,2.55-15.72,6.37"/></g><g class="cls-13"><path class="cls-3" d="M82.43,91.78v-9.35H38.24l31.44,31.44,6.37-6.37c4.25-4.25,6.37-9.77,6.37-15.72"/></g><g class="cls-14"><path class="cls-3" d="M144.89,135.97v9.35h44.19l-31.44-31.44-6.37,6.37c-3.82,4.25-6.37,9.77-6.37,15.72"/></g></g></g></g><g class="cls-15"><path class="cls-3" d="M144.89,91.78v-9.35h-8.92c-5.95,0-11.47-2.12-15.3-6.37l-6.37-6.37-6.37,6.37c-4.25,4.25-9.77,6.37-15.3,6.37h-9.35v9.35c0,5.95-2.12,11.47-6.37,15.3l-6.37,6.37,6.37,6.37c4.25,4.25,6.37,9.77,6.37,15.3v9.35h9.35c5.95,0,11.47,2.12,15.3,6.37l6.37,6.37,6.37-6.37c4.25-4.25,9.77-6.37,15.3-6.37h9.35v-8.5c0-5.95,2.12-11.47,6.37-15.3l6.37-6.37-6.37-6.37c-4.25-4.67-6.8-10.2-6.8-16.15"/></g></g></g><g><path class="cls-3" d="M312.32,227.53v.13h-5.17l-2.35-5.17h-13.36l-2.35,5.17h-5.21v-.08l13.48-28.65h1.51l13.44,28.61Zm-16.13-15.75l-3.11,6.81h10.08l-3.11-6.81c-.67-1.51-1.26-3.02-1.93-4.87-.67,1.85-1.26,3.32-1.93,4.87Z"/><path class="cls-3" d="M315.93,224.72l2.31-3.86c2.14,1.85,5,2.94,7.98,2.94s5.33-1.3,5.33-3.82c0-2.69-2.94-3.82-6.18-4.87-4.79-1.55-8.53-4.16-8.53-8.7,0-5.04,4.37-7.86,9.54-7.86,3.32,0,6.13,.8,9.28,2.9l-2.14,3.7c-2.44-1.55-4.54-2.23-6.89-2.23-2.52,0-4.75,1.09-4.75,3.23,0,2.6,2.9,3.7,5.84,4.7,4.96,1.6,8.82,3.99,8.82,8.86,0,5.33-4.5,8.49-10.17,8.49-3.91,0-7.65-1.26-10.46-3.49Z"/><path class="cls-3" d="M341.97,224.72l2.31-3.86c2.14,1.85,5,2.94,7.98,2.94s5.33-1.3,5.33-3.82c0-2.69-2.94-3.82-6.18-4.87-4.79-1.55-8.53-4.16-8.53-8.7,0-5.04,4.37-7.86,9.54-7.86,3.32,0,6.13,.8,9.28,2.9l-2.14,3.7c-2.44-1.55-4.54-2.23-6.89-2.23-2.52,0-4.75,1.09-4.75,3.23,0,2.6,2.9,3.7,5.84,4.7,4.96,1.6,8.82,3.99,8.82,8.86,0,5.33-4.5,8.49-10.17,8.49-3.91,0-7.65-1.26-10.46-3.49Z"/><path class="cls-3" d="M388.05,223.29v4.37h-18.36v-28.56h17.98v4.37h-13.02v7.56h11.38v4.24h-11.38v8.02h13.4Z"/><path class="cls-3" d="M413.71,203.67h-8.07v23.99h-4.96v-23.99h-8.11v-4.58h21.13v4.58Z"/><path class="cls-3" d="M449.24,227.66h-4.87l-2.27-15.46c-.13-1.01-.25-1.93-.34-2.9-.5,.92-1.09,1.81-1.68,2.69l-6.51,9.91h-1.01l-6.47-9.91c-.63-.88-1.22-1.81-1.76-2.77-.04,1.09-.21,2.02-.34,3.02l-2.18,15.42h-4.87l4.2-28.77h1.47l8.61,13.19c.63,.97,1.26,1.97,1.85,2.98,.59-1.01,1.22-2.02,1.85-2.98l8.65-13.19h1.47l4.2,28.77Z"/><path class="cls-3" d="M481.33,227.53v.13h-5.17l-2.35-5.17h-13.36l-2.35,5.17h-5.21v-.08l13.48-28.65h1.51l13.44,28.61Zm-16.13-15.75l-3.11,6.81h10.08l-3.11-6.81c-.67-1.51-1.26-3.02-1.93-4.87-.67,1.85-1.26,3.32-1.93,4.87Z"/><path class="cls-3" d="M511.53,199.1v28.73h-1.93l-15.42-16.84c-.71-.76-1.6-1.68-2.39-2.6,.08,1.05,.17,2.1,.17,3.11v16.17h-4.91v-28.73h1.89l14.95,16.42c.92,.97,1.89,1.97,2.86,3.07-.08-1.39-.13-2.65-.13-3.82v-15.5h4.92Z"/><path class="cls-3" d="M545.67,227.53v.13h-5.17l-2.35-5.17h-13.36l-2.35,5.17h-5.21v-.08l13.48-28.65h1.51l13.44,28.61Zm-16.13-15.75l-3.11,6.81h10.08l-3.11-6.81c-.67-1.51-1.26-3.02-1.93-4.87-.67,1.85-1.26,3.32-1.93,4.87Z"/><path class="cls-3" d="M575.49,211.66v11.3c-2.81,3.4-6.89,5.25-11.85,5.25-8.78,0-14.83-6.38-14.83-14.87s5.8-14.79,14.91-14.79c4.58,0,8.28,1.72,11.05,4.58l-2.73,3.28c-2.31-2.27-4.87-3.4-8.15-3.4-6.13,0-10.04,4.33-10.04,10.38s4.16,10.42,10.21,10.42c2.81,0,5.25-.92,7.02-2.73v-5.29h-7.65v-4.12h12.06Z"/><path class="cls-3" d="M601.49,223.29v4.37h-18.36v-28.56h17.98v4.37h-13.02v7.56h11.38v4.24h-11.38v8.02h13.4Z"/><path class="cls-3" d="M639.33,227.66h-4.87l-2.27-15.46c-.13-1.01-.25-1.93-.34-2.9-.5,.92-1.09,1.81-1.68,2.69l-6.51,9.91h-1.01l-6.47-9.91c-.63-.88-1.22-1.81-1.76-2.77-.04,1.09-.21,2.02-.34,3.02l-2.18,15.42h-4.87l4.2-28.77h1.47l8.61,13.19c.63,.97,1.26,1.97,1.85,2.98,.59-1.01,1.22-2.02,1.85-2.98l8.65-13.19h1.47l4.2,28.77Z"/><path class="cls-3" d="M664.95,223.29v4.37h-18.36v-28.56h17.98v4.37h-13.02v7.56h11.38v4.24h-11.38v8.02h13.4Z"/><path class="cls-3" d="M696.66,199.1v28.73h-1.93l-15.42-16.84c-.71-.76-1.6-1.68-2.39-2.6,.08,1.05,.17,2.1,.17,3.11v16.17h-4.92v-28.73h1.89l14.96,16.42c.92,.97,1.89,1.97,2.86,3.07-.08-1.39-.13-2.65-.13-3.82v-15.5h4.91Z"/><path class="cls-3" d="M724.09,203.67h-8.07v23.99h-4.96v-23.99h-8.11v-4.58h21.13v4.58Z"/></g></svg>