<?xml version="1.0" encoding="UTF-8"?><svg id="Ebene_1" xmlns="http://www.w3.org/2000/svg" xmlns:xlink="http://www.w3.org/1999/xlink" viewBox="0 0 723.08 227.58"><defs><style>.cls-1{fill:none;}.cls-2{clip-path:url(#clippath);}.cls-3{fill:#005792;}.cls-4{fill:#008ecf;}.cls-5{fill:#45c0ea;}</style><clipPath id="clippath"><rect class="cls-1" x="0" width="723.08" height="226.76"/></clipPath></defs><g><path class="cls-5" d="M310.96,226.91v.13h-5.17l-2.35-5.17h-13.36l-2.35,5.17h-5.21v-.08l13.48-28.65h1.51l13.44,28.61Zm-16.13-15.75l-3.11,6.81h10.08l-3.11-6.81c-.67-1.51-1.26-3.02-1.93-4.87-.67,1.85-1.26,3.32-1.93,4.87Z"/><path class="cls-5" d="M314.56,224.1l2.31-3.86c2.14,1.85,5,2.94,7.98,2.94s5.33-1.3,5.33-3.82c0-2.69-2.94-3.82-6.18-4.87-4.79-1.55-8.53-4.16-8.53-8.7,0-5.04,4.37-7.86,9.54-7.86,3.32,0,6.13,.8,9.28,2.9l-2.14,3.7c-2.44-1.55-4.54-2.23-6.89-2.23-2.52,0-4.75,1.09-4.75,3.23,0,2.6,2.9,3.7,5.84,4.7,4.96,1.6,8.82,3.99,8.82,8.86,0,5.33-4.5,8.49-10.17,8.49-3.91,0-7.65-1.26-10.46-3.49Z"/><path class="cls-5" d="M340.6,224.1l2.31-3.86c2.14,1.85,5,2.94,7.98,2.94s5.33-1.3,5.33-3.82c0-2.69-2.94-3.82-6.18-4.87-4.79-1.55-8.53-4.16-8.53-8.7,0-5.04,4.37-7.86,9.54-7.86,3.32,0,6.13,.8,9.28,2.9l-2.14,3.7c-2.44-1.55-4.54-2.23-6.89-2.23-2.52,0-4.75,1.09-4.75,3.23,0,2.6,2.9,3.7,5.84,4.7,4.96,1.6,8.82,3.99,8.82,8.86,0,5.33-4.5,8.49-10.17,8.49-3.91,0-7.65-1.26-10.46-3.49Z"/><path class="cls-5" d="M386.68,222.67v4.37h-18.36v-28.56h17.98v4.37h-13.02v7.56h11.38v4.24h-11.38v8.02h13.4Z"/><path class="cls-5" d="M412.34,203.05h-8.07v23.99h-4.96v-23.99h-8.11v-4.58h21.13v4.58Z"/><path class="cls-5" d="M447.87,227.04h-4.87l-2.27-15.46c-.13-1.01-.25-1.93-.34-2.9-.5,.92-1.09,1.81-1.68,2.69l-6.51,9.91h-1.01l-6.47-9.91c-.63-.88-1.22-1.81-1.76-2.77-.04,1.09-.21,2.02-.34,3.02l-2.18,15.42h-4.87l4.2-28.77h1.47l8.61,13.19c.63,.97,1.26,1.97,1.85,2.98,.59-1.01,1.22-2.02,1.85-2.98l8.65-13.19h1.47l4.2,28.77Z"/><path class="cls-5" d="M479.96,226.91v.13h-5.17l-2.35-5.17h-13.36l-2.35,5.17h-5.21v-.08l13.48-28.65h1.51l13.44,28.61Zm-16.13-15.75l-3.11,6.81h10.08l-3.11-6.81c-.67-1.51-1.26-3.02-1.93-4.87-.67,1.85-1.26,3.32-1.93,4.87Z"/><path class="cls-5" d="M510.16,198.47v28.73h-1.93l-15.42-16.84c-.71-.76-1.6-1.68-2.39-2.6,.08,1.05,.17,2.1,.17,3.11v16.17h-4.91v-28.73h1.89l14.95,16.42c.92,.97,1.89,1.97,2.86,3.07-.08-1.39-.13-2.65-.13-3.82v-15.5h4.92Z"/><path class="cls-5" d="M544.31,226.91v.13h-5.17l-2.35-5.17h-13.36l-2.35,5.17h-5.21v-.08l13.48-28.65h1.51l13.44,28.61Zm-16.13-15.75l-3.11,6.81h10.08l-3.11-6.81c-.67-1.51-1.26-3.02-1.93-4.87-.67,1.85-1.26,3.32-1.93,4.87Z"/><path class="cls-5" d="M574.13,211.03v11.3c-2.81,3.4-6.89,5.25-11.85,5.25-8.78,0-14.83-6.38-14.83-14.87s5.8-14.79,14.91-14.79c4.58,0,8.28,1.72,11.05,4.58l-2.73,3.28c-2.31-2.27-4.87-3.4-8.15-3.4-6.13,0-10.04,4.33-10.04,10.38s4.16,10.42,10.21,10.42c2.81,0,5.25-.92,7.02-2.73v-5.29h-7.65v-4.12h12.06Z"/><path class="cls-5" d="M600.12,222.67v4.37h-18.36v-28.56h17.98v4.37h-13.02v7.56h11.38v4.24h-11.38v8.02h13.4Z"/><path class="cls-5" d="M637.97,227.04h-4.87l-2.27-15.46c-.13-1.01-.25-1.93-.34-2.9-.5,.92-1.09,1.81-1.68,2.69l-6.51,9.91h-1.01l-6.47-9.91c-.63-.88-1.22-1.81-1.76-2.77-.04,1.09-.21,2.02-.34,3.02l-2.18,15.42h-4.87l4.2-28.77h1.47l8.61,13.19c.63,.97,1.26,1.97,1.85,2.98,.59-1.01,1.22-2.02,1.85-2.98l8.65-13.19h1.47l4.2,28.77Z"/><path class="cls-5" d="M663.58,222.67v4.37h-18.36v-28.56h17.98v4.37h-13.02v7.56h11.38v4.24h-11.38v8.02h13.4Z"/><path class="cls-5" d="M695.29,198.47v28.73h-1.93l-15.42-16.84c-.71-.76-1.6-1.68-2.39-2.6,.08,1.05,.17,2.1,.17,3.11v16.17h-4.92v-28.73h1.89l14.96,16.42c.92,.97,1.89,1.97,2.86,3.07-.08-1.39-.13-2.65-.13-3.82v-15.5h4.91Z"/><path class="cls-5" d="M722.72,203.05h-8.07v23.99h-4.96v-23.99h-8.11v-4.58h21.13v4.58Z"/></g><rect class="cls-3" x="283.45" y="56.71" width="20.86" height="113.38"/><g class="cls-2"><path class="cls-3" d="M413.94,170.09c-36.36-7.13-42.07-76.12-61.85-90.38v90.38h-19.97V56.71h18.18c35.66,6.95,39.58,77.37,61.86,90.38V56.71h19.97v113.38h-18.19Z"/><path class="cls-3" d="M480.98,123.38h44.74c-6.77-17.82-14.79-31.73-22.82-44.74-8.2,13.01-15.69,26.92-21.93,44.74m-32.27,46.71c7.49-43.5,26.03-85.39,48.31-113.38h13.55c22.28,27.99,40.82,69.88,48.31,113.38h-20.68c-1.96-10.88-4.28-20.86-6.78-29.77h-55.62c-2.32,8.91-4.63,18.89-6.42,29.77h-20.68Z"/></g><rect class="cls-3" x="575.47" y="56.71" width="20.86" height="113.38"/><g><path class="cls-3" d="M645.18,123.38h44.74c-6.77-17.82-14.79-31.73-22.82-44.74-8.2,13.01-15.69,26.92-21.93,44.74m-32.27,46.71c7.49-43.5,26.03-85.39,48.31-113.38h13.55c22.28,27.99,40.82,69.88,48.31,113.38h-20.68c-1.96-10.88-4.28-20.86-6.78-29.77h-55.62c-2.32,8.91-4.63,18.89-6.42,29.77h-20.68Z"/><path class="cls-5" d="M144.51,38.23v-14.19c0-6.74-4.06-12.82-10.29-15.41L113.38,0l-20.84,8.64c-6.23,2.58-10.29,8.66-10.29,15.4v14.19l31.13,31.13,31.13-31.13Z"/><path class="cls-5" d="M82.25,188.53v14.19c0,6.74,4.06,12.82,10.29,15.4l20.84,8.63,20.84-8.63c6.23-2.58,10.29-8.66,10.29-15.41v-14.19l-31.13-31.13-31.13,31.13Z"/><path class="cls-5" d="M38.23,82.25h-14.19c-6.74,0-12.82,4.06-15.4,10.29L0,113.38l8.63,20.84c2.58,6.23,8.66,10.29,15.41,10.29h14.19l31.13-31.13-31.13-31.13Z"/><path class="cls-5" d="M218.12,92.54c-2.58-6.23-8.66-10.29-15.4-10.29h-14.19l-31.13,31.13,31.13,31.13h14.19c6.74,0,12.82-4.06,15.4-10.29l8.63-20.85-8.63-20.84Z"/><path class="cls-5" d="M38.23,144.51l-10.03,10.03c-4.77,4.77-6.2,11.94-3.62,18.17l8.63,20.84,20.84,8.63c6.23,2.58,13.4,1.15,18.17-3.62l10.04-10.03v-44.03H38.23Z"/><path class="cls-5" d="M188.53,82.25l10.03-10.03c4.77-4.77,6.2-11.94,3.62-18.17l-8.63-20.85-20.84-8.62c-6.23-2.58-13.39-1.16-18.17,3.61l-10.03,10.03v44.03h44.03Z"/><path class="cls-4" d="M135.25,82.25h9.25V38.23l-31.13,31.13,6.54,6.54c4.06,4.06,9.58,6.35,15.33,6.35"/><path class="cls-4" d="M91.5,144.51h-9.25v44.03l31.13-31.13-6.54-6.54c-4.06-4.06-9.58-6.35-15.33-6.35"/><path class="cls-4" d="M150.86,106.84l6.54,6.54,31.13-31.13h-44.02v9.26c0,5.75,2.29,11.26,6.35,15.33"/><path class="cls-4" d="M75.9,119.92l-6.54-6.54-31.13,31.13h44.02v-9.26c0-5.75-2.28-11.26-6.35-15.33"/><path class="cls-5" d="M144.51,188.53l10.03,10.03c4.77,4.77,11.94,6.2,18.17,3.62l20.85-8.63,8.62-20.84c2.58-6.23,1.16-13.39-3.61-18.17l-10.03-10.03h-44.03v44.03Z"/><path class="cls-5" d="M82.25,38.23l-10.04-10.04c-4.77-4.77-11.93-6.19-18.17-3.61l-20.84,8.63-8.63,20.84c-2.58,6.23-1.15,13.41,3.62,18.17l10.03,10.03h44.03V38.23Z"/><path class="cls-4" d="M106.84,75.9l6.54-6.54-31.13-31.13v44.02h9.26c5.75,0,11.26-2.28,15.33-6.35"/><path class="cls-4" d="M119.92,150.86l-6.54,6.54,31.13,31.13v-44.02h-9.26c-5.75,0-11.26,2.29-15.33,6.35"/><path class="cls-4" d="M82.25,91.5v-9.25H38.22l31.13,31.13,6.54-6.54c4.06-4.06,6.35-9.58,6.35-15.33"/><path class="cls-4" d="M144.51,135.26v9.25h44.03l-31.13-31.13-6.54,6.54c-4.06,4.06-6.35,9.58-6.35,15.33"/><path class="cls-3" d="M144.51,91.5v-9.25h-9.25c-5.75,0-11.27-2.29-15.34-6.35l-6.54-6.54-6.54,6.54c-4.07,4.07-9.58,6.35-15.33,6.35h-9.26v9.25c0,5.75-2.29,11.27-6.35,15.33l-6.54,6.54,6.54,6.54c4.06,4.06,6.35,9.58,6.35,15.33v9.25h9.26c5.75,0,11.26,2.29,15.33,6.35l6.54,6.54,6.54-6.54c4.07-4.07,9.58-6.35,15.34-6.35h9.25v-9.25c0-5.75,2.29-11.27,6.35-15.33l6.54-6.54-6.54-6.54c-4.06-4.06-6.35-9.58-6.35-15.33"/></g></svg>