<svg width="60" height="55" viewBox="0 0 60 55" fill="none" xmlns="http://www.w3.org/2000/svg">
<path fill-rule="evenodd" clip-rule="evenodd" d="M24.2203 14.436C24.4781 18.7716 28.2184 20.5833 30.8784 20.1031C33.5139 19.6274 35.5696 17.4695 35.7404 14.8348C35.9183 12.0929 34.2031 9.62177 31.5878 8.88317C30.0436 8.447 28.4863 8.64712 26.9424 8.88317C20.9509 9.79944 16.1835 12.7477 12.6098 17.6412C10.9405 19.9271 9.85541 22.4872 9.18783 25.228C9.09483 25.6092 8.93889 25.7323 8.55923 25.7255C8.07311 25.7169 7.5826 25.7541 7.09945 25.815C5.07401 26.0704 3.43809 28.0664 3.517 30.1663C3.597 32.2976 5.32685 34.1534 7.36388 34.2929C7.90731 34.3303 8.61011 34.1752 8.95095 34.458C9.31245 34.7581 9.34126 35.4711 9.49688 36.0092C12.6189 46.7949 23.7002 53.469 34.5916 50.9043C42.688 48.9978 47.9972 43.9003 50.5142 35.9272C50.6666 35.4445 50.6548 34.7906 50.975 34.5141C51.2865 34.2449 51.9259 34.3359 52.4235 34.308C55.4536 34.138 57.3643 30.9584 56.054 28.2144C55.1857 26.3963 53.6406 25.6759 51.7071 25.7392C51.0996 25.7591 50.8814 25.5535 50.7362 24.9811C49.3547 19.5348 46.334 15.2338 41.6489 12.1394C40.6563 11.4837 39.579 10.9568 38.4145 10.2992C39.9629 15.4301 39.0478 19.1525 35.7071 21.7472C32.6375 24.1311 28.4387 24.3748 25.1706 22.3585C22.3775 20.6352 20.3358 16.9419 20.8077 14.436H24.2203ZM60.0001 31.1065C59.8999 31.4795 59.814 31.8569 59.6974 32.2245C58.8134 35.0105 56.9646 36.8131 54.1624 37.6116C53.8041 37.7138 53.6246 37.8648 53.4925 38.2192C50.3539 46.6367 44.4546 52.0626 35.772 54.2716C23.5787 57.3739 10.6681 50.286 6.55571 38.3501C6.40948 37.9257 6.20845 37.7045 5.74754 37.5755C2.15334 36.5685 -0.0537096 33.5168 0.000930547 29.6964C0.0491516 26.3362 2.52205 23.32 5.93979 22.4062C6.15976 22.3474 6.404 22.0729 6.48557 21.8443C8.30278 16.7463 11.424 12.6512 15.8412 9.54471C16.1766 9.30897 16.5223 9.08783 16.8691 8.86936C17.1982 8.66187 17.5349 8.46662 17.9501 8.21692C14.286 6.68698 12.3189 3.99216 12.0617 0.0089461H15.6037C15.7226 1.8724 16.5155 3.38304 18.1607 4.38265C19.2591 5.05015 20.4586 5.15908 21.7936 5.05941C20.7609 3.50107 20.1713 1.86393 20.1705 0H23.6554C23.7187 0.388763 23.7542 0.777212 23.847 1.15122C24.449 3.5775 26.4337 5.09708 29.0596 5.08719C31.9454 5.07636 34.7904 5.34443 37.5351 6.27875C45.3002 8.92209 50.633 14.0907 53.4775 21.8131C53.611 22.1757 53.7839 22.3492 54.1798 22.4679C57.2916 23.4003 59.2211 25.454 59.8848 28.6661C59.9079 28.7779 59.961 28.8834 60.0001 28.992V31.1065Z" fill="#105796"/>
<path fill-rule="evenodd" clip-rule="evenodd" d="M35.9667 38C36.9724 38.6274 37.9592 39.2432 39 39.8927C37.0809 43.0757 34.3885 44.8648 30.8752 44.9926C27.0612 45.1311 24.1326 43.3263 22 39.9046C23.0262 39.2621 24.0093 38.6468 25.0385 38.0025C26.335 40.0659 28.1232 41.2577 30.4856 41.2638C32.8588 41.2701 34.6549 40.0886 35.9667 38" fill="#105796"/>
<path fill-rule="evenodd" clip-rule="evenodd" d="M17.6168 31H14.0135C13.7768 27.918 16.6977 25.0094 20.0011 25C23.301 24.9906 26.2328 27.9101 25.9854 30.9984H22.4245C22.0478 29.3864 21.2495 28.6616 19.9088 28.6999C18.6815 28.7349 17.8743 29.5295 17.6168 31" fill="#105796"/>
<path fill-rule="evenodd" clip-rule="evenodd" d="M38.6209 31H35C35.0292 28.9784 35.8346 27.3664 37.4494 26.2116C39.4856 24.7557 41.6884 24.6038 43.8881 25.7997C45.9034 26.8955 46.8978 28.6689 47 30.9929H43.4042C42.9328 29.2861 42.1658 28.6232 40.7798 28.7104C39.6263 28.7829 38.831 29.6061 38.6209 31" fill="#105796"/>
</svg>
