<svg width="62" height="49" viewBox="0 0 62 49" fill="none" xmlns="http://www.w3.org/2000/svg">
<mask id="mask0_0_890" style="mask-type:alpha" maskUnits="userSpaceOnUse" x="0" y="0" width="62" height="49">
<path fill-rule="evenodd" clip-rule="evenodd" d="M0 0H62V49H0V0Z" fill="white"/>
</mask>
<g mask="url(#mask0_0_890)">
<path fill-rule="evenodd" clip-rule="evenodd" d="M14.2757 26.3093C14.2757 30.5528 14.2692 34.6378 14.2942 38.7227C14.2954 38.9362 14.5233 39.2058 14.7178 39.352C16.805 40.9206 19.125 42.0395 21.5882 42.863C26.5108 44.5086 31.5531 44.8989 36.6754 44.1982C41.2132 43.5773 45.448 42.1118 49.2124 39.4096C49.5689 39.1537 49.7132 38.8946 49.7108 38.4452C49.6913 34.638 49.7001 30.8307 49.6985 27.0234C49.6983 26.8266 49.6798 26.63 49.6656 26.3506C49.348 26.5133 49.1057 26.6316 48.869 26.76C43.697 29.5619 38.5207 32.3564 33.3583 35.176C32.4161 35.6905 31.5612 35.6905 30.6164 35.1715C26.5325 32.928 22.4299 30.7191 18.3332 28.499C17.022 27.7886 15.7086 27.0823 14.2757 26.3093ZM56.0626 17.7869C55.8586 17.6533 55.7848 17.5973 55.7044 17.5536C47.9596 13.3551 40.2128 9.16052 32.4743 4.9503C32.0924 4.74252 31.8146 4.78847 31.4609 4.98062C24.855 8.57105 18.2433 12.1509 11.6336 15.7342C10.4255 16.3892 9.22066 17.0503 7.92632 17.7566C8.20762 17.9299 8.3906 18.0549 8.5843 18.1598C16.2075 22.2934 23.8331 26.4222 31.4509 30.5658C31.8412 30.7782 32.1362 30.7831 32.5268 30.5705C39.0489 27.0202 45.5794 23.485 52.1071 19.945C53.3963 19.2458 54.6821 18.5404 56.0626 17.7869ZM58.5289 21.5287C57.091 22.3057 55.7098 23.0313 54.3585 23.8098C54.1975 23.9026 54.1376 24.2836 54.1371 24.5314C54.1245 29.4987 54.0984 34.4663 54.1487 39.4333C54.1609 40.6485 53.7353 41.504 52.8213 42.2421C49.3035 45.0827 45.3061 46.9214 40.9408 47.9259C33.0461 49.7427 25.2915 49.3148 17.7585 46.182C15.363 45.1857 13.149 43.8654 11.1255 42.2181C10.2324 41.4909 9.81728 40.6507 9.82819 39.4662C9.8731 34.5456 9.83151 29.6242 9.86589 24.7036C9.87051 24.0634 9.64872 23.7672 9.12067 23.4897C6.89609 22.3198 4.69943 21.0959 2.47929 19.9169C1.59619 19.4478 0.993097 18.8087 1.00012 17.7577C1.00714 16.7065 1.62983 16.089 2.50683 15.615C11.86 10.5595 21.21 5.49774 30.5475 0.412692C31.5411 -0.128421 32.4205 -0.141628 33.4125 0.397996C42.732 5.4689 52.0589 10.526 61.3969 15.5624C62.5247 16.1704 63.0123 17.0062 62.9995 18.2969C62.9578 22.5444 62.9836 26.7925 62.9836 31.0403C62.9834 32.0482 62.5332 32.789 61.6227 33.1908C60.7565 33.5733 59.9464 33.3871 59.2535 32.7524C58.7261 32.2693 58.5485 31.6428 58.5511 30.9321C58.5624 27.9843 58.5561 25.0364 58.5548 22.0883C58.5548 21.9328 58.5408 21.7772 58.5289 21.5287Z" fill="#105796"/>
</g>
</svg>
