<?xml version="1.0" encoding="UTF-8"?>
<svg width="499px" height="368px" viewBox="0 0 499 368" version="1.1" xmlns="http://www.w3.org/2000/svg" xmlns:xlink="http://www.w3.org/1999/xlink">
    <title>Background</title>
    <g id="Page-1" stroke="none" stroke-width="1" fill="none" fill-rule="evenodd">
        <g id="Desktop---1" transform="translate(-103.000000, -950.000000)">
            <g id="Background" transform="translate(104.495850, 951.111816)">
                <path d="M78.5041504,276.888184 L140.50415,276.888184 C148.236137,276.888184 154.50415,283.156197 154.50415,290.888184 L154.50415,352.888184 C154.50415,360.62017 148.236137,366.888184 140.50415,366.888184 L78.5041504,366.888184 C70.7721639,366.888184 64.5041504,360.62017 64.5041504,352.888184 L64.5041504,290.888184 C64.5041504,283.156197 70.7721639,276.888184 78.5041504,276.888184 Z" id="Rectangle-380" fill="#9ECBFF" opacity="0.189999998"></path>
                <path d="M258.058392,89.8688963 L507.017567,89.8688963 C507.017567,90.2275594 507.020985,90.5869625 507.020985,90.9463556 C507.020985,159.390455 451.287876,214.874973 382.537251,214.874973 C313.787106,214.874973 258.053512,159.390447 258.053512,90.9463556 C258.053512,90.5869625 258.054972,90.2275594 258.058392,89.8688963 Z" id="Intersection-8" fill="#F53D6B" opacity="0.209999993" transform="translate(382.533199, 152.372566) scale(-1, -1) rotate(90.000000) translate(-382.533199, -152.372566) "></path>
                <path d="M5.03076783,155.287203 L15.0307679,155.287203 C16.6876222,155.287203 18.0307679,156.630349 18.0307679,158.287203 L18.0307679,168.287204 C18.0307679,169.944059 16.6876222,171.287204 15.0307679,171.287204 L5.03076783,171.287204 C3.37391358,171.287204 2.03076783,169.944059 2.03076783,168.287204 L2.03076783,158.287203 C2.03076783,156.630349 3.37391358,155.287203 5.03076783,155.287203 Z" id="Rectangle-382" fill="#FF6701" transform="translate(10.032458, 163.282693) rotate(-129.000001) translate(-10.032458, -163.282693) "></path>
                <path d="M483.708551,0.492698695 L493.708551,0.492698695 C495.365406,0.492698695 496.708551,1.83584445 496.708551,3.4926987 L496.708551,13.4926988 C496.708551,15.149553 495.365406,16.4926988 493.708551,16.4926988 L483.708551,16.4926988 C482.051697,16.4926988 480.708551,15.149553 480.708551,13.4926988 L480.708551,3.4926987 C480.708551,1.83584445 482.051697,0.492698695 483.708551,0.492698695 Z" id="Rectangle-383" fill="#7047EB" transform="translate(488.711351, 8.495439) rotate(-174.000000) translate(-488.711351, -8.495439) "></path>
            </g>
        </g>
    </g>
</svg>