<svg width="49" height="48" viewBox="0 0 49 48" fill="none" xmlns="http://www.w3.org/2000/svg">
<mask id="mask0_0_929" style="mask-type:alpha" maskUnits="userSpaceOnUse" x="0" y="0" width="49" height="48">
<path fill-rule="evenodd" clip-rule="evenodd" d="M0.971588 0H48.9716V48H0.971588V0Z" fill="white"/>
</mask>
<g mask="url(#mask0_0_929)">
<path fill-rule="evenodd" clip-rule="evenodd" d="M37.629 0C38.4223 0.36499 39.0161 0.884358 39.0315 1.83974C39.039 2.30816 39.0334 2.77681 39.0336 3.24534C39.0337 3.39761 39.0336 3.54987 39.0336 3.75121C39.8363 3.75121 40.5969 3.7498 41.3576 3.75145C45.0475 3.75908 48.0265 6.14507 48.8225 9.74472C48.9095 10.1378 48.9602 10.5474 48.9615 10.9495C48.9731 14.6043 48.9733 18.259 48.9689 21.9138C48.9677 22.8949 48.2777 23.6839 47.3547 23.797C46.3839 23.9158 45.5119 23.3269 45.2772 22.3745C45.2259 22.1661 45.2269 21.9415 45.2268 21.7245C45.2239 18.3352 45.2262 14.9459 45.2238 11.5566C45.2231 10.6321 45.0293 9.76409 44.4532 9.01016C43.7467 8.08566 42.8023 7.58836 41.6548 7.52614C40.8017 7.47988 39.9441 7.5171 39.0335 7.5171C39.0335 8.12134 39.0371 8.70939 39.0328 9.29732C39.0243 10.4356 38.2319 11.2512 37.145 11.2455C36.0829 11.24 35.2975 10.4256 35.288 9.31364C35.2828 8.72406 35.2871 8.13449 35.2871 7.52144H26.751C26.751 8.1467 26.76 8.77971 26.7489 9.41249C26.7328 10.3152 26.0907 11.0665 25.2161 11.2272C24.366 11.3832 23.4698 10.9245 23.1645 10.1088C23.0378 9.77043 23.0299 9.37973 23.0113 9.01075C22.9868 8.52954 23.0053 8.04609 23.0053 7.53048H14.564C14.564 7.80496 14.564 8.08061 14.564 8.35626C14.564 10.4044 14.0119 11.2507 12.6793 11.2455C11.3589 11.2404 10.8174 10.3935 10.8174 8.3336C10.8174 8.07145 10.8174 7.8093 10.8174 7.43926C9.70472 7.50395 8.61025 7.43715 7.57648 7.65645C5.77971 8.03752 4.72551 9.55078 4.72176 11.4896C4.71542 14.7226 4.72 17.9558 4.72 21.1888C4.72 27.53 4.71718 33.8713 4.72187 40.2125C4.72305 41.8244 5.34408 43.1221 6.84424 43.8194C7.43029 44.0918 8.1334 44.2221 8.78461 44.2268C13.4396 44.2604 18.095 44.2457 22.7503 44.2438C23.502 44.2436 24.0832 44.5496 24.4501 45.2054C24.8067 45.8429 24.7858 46.494 24.4007 47.1147C24.0559 47.6703 23.5412 47.984 22.8863 47.9847C17.9186 47.9905 12.9505 48.0238 7.98334 47.9692C4.6681 47.9328 1.54354 45.0453 1.0694 41.7273C1.05496 41.626 1.00494 41.5296 0.971588 41.431C0.971588 31.0576 0.971588 20.6842 0.971588 10.3108C1.00059 10.2588 1.04662 10.2096 1.05613 10.1543C1.71157 6.31142 4.73467 3.75626 8.63596 3.75133C9.34941 3.75039 10.0629 3.75109 10.8174 3.75109C10.8174 3.54882 10.8173 3.39655 10.8174 3.24417C10.8176 2.77575 10.8119 2.30722 10.8195 1.83892C10.8351 0.884005 11.4289 0.364872 12.222 0H13.1595C14.265 0.450573 14.6755 1.29185 14.5703 2.44892C14.5315 2.87507 14.564 3.30768 14.564 3.72609H23.0053C23.0053 3.54929 23.0051 3.39702 23.0053 3.24476C23.0055 2.77622 22.9997 2.30769 23.0074 1.83927C23.0229 0.88424 23.6167 0.36499 24.4098 0H25.3473C26.4528 0.450573 26.8633 1.29185 26.7581 2.44892C26.7195 2.87507 26.7519 3.30768 26.7519 3.72609H35.287C35.287 3.54929 35.2868 3.39702 35.287 3.24476C35.2872 2.77622 35.2814 2.30769 35.2891 1.83927C35.3046 0.88424 35.8984 0.36499 36.6915 0H37.629Z" fill="#16317E"/>
</g>
<path fill-rule="evenodd" clip-rule="evenodd" d="M37.6593 44.2668C41.7785 44.2862 45.1941 40.8975 45.2385 36.7472C45.2826 32.6242 41.8498 29.1642 37.6956 29.1447C33.5764 29.1252 30.1608 32.5139 30.1164 36.6643C30.0722 40.7873 33.505 44.2472 37.6593 44.2668ZM48.9715 36.7357C48.9568 42.9626 43.8779 48.0145 37.6474 47.9998C31.4206 47.9851 26.3686 42.9062 26.3834 36.6758C26.3981 30.449 31.4769 25.3971 37.7074 25.4117C43.9341 25.4264 48.9863 30.5053 48.9715 36.7357Z" fill="#16317E"/>
<path fill-rule="evenodd" clip-rule="evenodd" d="M12.9563 22.5883C11.7822 22.5828 10.8533 21.6464 10.8539 20.4688C10.8546 19.2708 11.8065 18.3382 13.0132 18.3532C14.1816 18.3678 15.0992 19.3165 15.0892 20.4992C15.0792 21.6712 14.1374 22.5937 12.9563 22.5883Z" fill="#16317E"/>
<path fill-rule="evenodd" clip-rule="evenodd" d="M23.5598 20.46C23.5637 21.6396 22.6388 22.5799 21.4661 22.5883C20.2629 22.5969 19.3188 21.6565 19.3245 20.4549C19.3301 19.2808 20.267 18.3521 21.4447 18.353C22.6214 18.3538 23.556 19.2848 23.5598 20.46Z" fill="#16317E"/>
<path fill-rule="evenodd" clip-rule="evenodd" d="M32.0303 20.4946C32.022 21.6673 31.0818 22.5922 29.9022 22.5883C28.7062 22.5845 27.7769 21.6283 27.7954 20.4205C27.8132 19.2533 28.7649 18.34 29.9498 18.3532C31.1194 18.3662 32.0388 19.3125 32.0303 20.4946Z" fill="#16317E"/>
<path fill-rule="evenodd" clip-rule="evenodd" d="M38.3986 22.5883C37.2177 22.5937 36.2759 21.6712 36.2658 20.4991C36.2555 19.295 37.194 18.3489 38.3947 18.353C39.5697 18.3572 40.5003 19.2919 40.501 20.4687C40.5016 21.6463 39.5727 22.583 38.3986 22.5883Z" fill="#16317E"/>
<path fill-rule="evenodd" clip-rule="evenodd" d="M12.9609 26.8237C14.1406 26.8199 15.0808 27.7448 15.0892 28.9175C15.0978 30.1206 14.1573 31.0647 12.9558 31.059C11.7818 31.0534 10.8531 30.1165 10.8539 28.9388C10.8549 27.7621 11.7858 26.8276 12.9609 26.8237Z" fill="#16317E"/>
<path fill-rule="evenodd" clip-rule="evenodd" d="M23.5598 28.9307C23.5637 30.1103 22.6388 31.0506 21.4661 31.059C20.2629 31.0676 19.3188 30.1272 19.3245 28.9256C19.3301 27.7515 20.267 26.8228 21.4447 26.8237C22.6214 26.8245 23.556 27.7555 23.5598 28.9307Z" fill="#16317E"/>
<path fill-rule="evenodd" clip-rule="evenodd" d="M12.9601 38.1176C11.785 38.1135 10.8545 37.1786 10.8539 36.0018C10.8533 34.8031 11.8038 33.8688 13.0095 33.8825C14.1789 33.8958 15.0979 34.8426 15.0892 36.0247C15.0805 37.1973 14.14 38.1217 12.9601 38.1176Z" fill="#16317E"/>
<path fill-rule="evenodd" clip-rule="evenodd" d="M21.418 38.1176C20.2454 38.1091 19.3206 37.1689 19.3245 35.9891C19.3285 34.7932 20.2848 33.8641 21.4926 33.8826C22.6598 33.9005 23.573 34.8523 23.5597 36.0373C23.5467 37.2066 22.6001 38.1261 21.418 38.1176Z" fill="#16317E"/>
<path fill-rule="evenodd" clip-rule="evenodd" d="M40.3585 36.0427C40.7405 36.0427 41.0461 36.036 41.3512 36.0439C42.4693 36.0726 43.3299 36.8388 43.3245 37.7951C43.3191 38.7282 42.4628 39.498 41.3712 39.5168C40.3321 39.5346 39.2921 39.5326 38.2529 39.5179C37.1523 39.5023 36.2889 38.7606 36.2773 37.8171C36.2625 36.5981 36.2608 35.3787 36.2784 34.1596C36.2921 33.205 37.2017 32.469 38.3221 32.4707C39.4409 32.4726 40.3338 33.2114 40.356 34.1698C40.3699 34.7763 40.3585 35.3832 40.3585 36.0427Z" fill="#16317E"/>
</svg>
